<svg xmlns="http://www.w3.org/2000/svg" xmlns:xlink="http://www.w3.org/1999/xlink" width="100" zoomAndPan="magnify" viewBox="0 0 75 74.999997" height="100" preserveAspectRatio="xMidYMid meet" version="1.0"><defs><clipPath id="ddc9442367"><path d="M 5 0.835938 L 73.234375 0.835938 L 73.234375 59 L 5 59 Z M 5 0.835938 " clip-rule="nonzero"/></clipPath><clipPath id="7bbe7742b7"><path d="M 2 40 L 24 40 L 24 74.335938 L 2 74.335938 Z M 2 40 " clip-rule="nonzero"/></clipPath></defs><g clip-path="url(#ddc9442367)"><path fill="#000000" d="M 69.710938 2.460938 C 70.113281 5.976562 70.203125 8.707031 70.101562 10.960938 C 69.949219 14.515625 69.296875 16.832031 68.597656 19.132812 C 66.277344 27.015625 62.226562 33.625 57.113281 39.019531 C 53.554688 42.769531 49.460938 45.921875 44.984375 48.464844 C 33.96875 54.722656 20.605469 57.300781 7.164062 55.445312 C 6.570312 55.347656 6.007812 55.753906 5.910156 56.351562 C 5.8125 56.949219 6.214844 57.515625 6.816406 57.609375 C 20.863281 60.199219 35.148438 58.25 46.921875 51.972656 C 51.84375 49.347656 56.320312 45.949219 60.128906 41.851562 C 65.59375 35.976562 69.675781 28.636719 71.941406 20.066406 C 72.59375 17.507812 73.214844 14.933594 73.207031 11.027344 C 73.207031 8.648438 72.980469 5.773438 72.382812 2.09375 C 72.28125 1.355469 71.601562 0.839844 70.863281 0.941406 C 70.125 1.042969 69.609375 1.722656 69.710938 2.460938 Z M 69.710938 2.460938 " fill-opacity="1" fill-rule="evenodd"/></g><g clip-path="url(#7bbe7742b7)"><path fill="#000000" d="M 19.960938 40.648438 C 18.3125 42.09375 14.703125 45.121094 11.246094 48.15625 C 6.839844 52.011719 2.671875 55.832031 2.671875 55.832031 C 2.242188 56.230469 2.003906 56.789062 2.007812 57.375 C 2.007812 57.957031 2.261719 58.511719 2.695312 58.90625 C 2.695312 58.90625 8.519531 63.917969 13.777344 68.136719 C 17.292969 70.960938 20.554688 73.40625 21.582031 74.007812 C 22.089844 74.339844 22.773438 74.199219 23.105469 73.691406 C 23.433594 73.1875 23.296875 72.503906 22.792969 72.171875 L 7.125 57.351562 C 8.699219 55.84375 11.234375 53.398438 13.777344 50.859375 C 17.046875 47.601562 20.316406 44.183594 21.828125 42.59375 C 22.363281 42.078125 22.382812 41.222656 21.867188 40.683594 C 21.355469 40.148438 20.496094 40.132812 19.960938 40.648438 Z M 19.960938 40.648438 " fill-opacity="1" fill-rule="evenodd"/></g></svg>